<svg width="127" height="16" viewBox="0 0 127 16" fill="none" xmlns="http://www.w3.org/2000/svg">
<path d="M0.29091 12.5V0.863636H4.43864C5.34394 0.863636 6.09394 1.02841 6.68864 1.35795C7.28333 1.6875 7.72841 2.13826 8.02386 2.71023C8.31932 3.27841 8.46705 3.91856 8.46705 4.63068C8.46705 5.34659 8.31743 5.99053 8.01818 6.5625C7.72273 7.13068 7.27576 7.58144 6.67727 7.91477C6.08258 8.24432 5.33447 8.40909 4.43296 8.40909H1.58068V6.92045H4.27386C4.84583 6.92045 5.30985 6.82197 5.66591 6.625C6.02197 6.42424 6.28333 6.15152 6.45 5.80682C6.61667 5.46212 6.7 5.07008 6.7 4.63068C6.7 4.19129 6.61667 3.80114 6.45 3.46023C6.28333 3.11932 6.02008 2.85227 5.66023 2.65909C5.30417 2.46591 4.83447 2.36932 4.25114 2.36932H2.04659V12.5H0.29091ZM10.5389 12.5V3.77273H12.181V5.15909H12.2719C12.431 4.68939 12.7113 4.32008 13.1128 4.05114C13.5181 3.77841 13.9764 3.64205 14.4878 3.64205C14.5938 3.64205 14.7188 3.64583 14.8628 3.65341C15.0105 3.66098 15.126 3.67045 15.2094 3.68182V5.30682C15.1412 5.28788 15.02 5.26705 14.8457 5.24432C14.6715 5.2178 14.4973 5.20455 14.323 5.20455C13.9215 5.20455 13.5635 5.28977 13.2491 5.46023C12.9385 5.62689 12.6923 5.85985 12.5105 6.15909C12.3287 6.45455 12.2378 6.79167 12.2378 7.17045V12.5H10.5389ZM20.1932 12.6761C19.375 12.6761 18.661 12.4886 18.0511 12.1136C17.4413 11.7386 16.9678 11.214 16.6307 10.5398C16.2936 9.86553 16.125 9.07765 16.125 8.17614C16.125 7.27083 16.2936 6.47917 16.6307 5.80114C16.9678 5.12311 17.4413 4.59659 18.0511 4.22159C18.661 3.84659 19.375 3.65909 20.1932 3.65909C21.0114 3.65909 21.7254 3.84659 22.3352 4.22159C22.9451 4.59659 23.4186 5.12311 23.7557 5.80114C24.0928 6.47917 24.2614 7.27083 24.2614 8.17614C24.2614 9.07765 24.0928 9.86553 23.7557 10.5398C23.4186 11.214 22.9451 11.7386 22.3352 12.1136C21.7254 12.4886 21.0114 12.6761 20.1932 12.6761ZM20.1989 11.25C20.7292 11.25 21.1686 11.1098 21.517 10.8295C21.8655 10.5492 22.1231 10.1761 22.2898 9.71023C22.4602 9.24432 22.5455 8.73106 22.5455 8.17045C22.5455 7.61364 22.4602 7.10227 22.2898 6.63636C22.1231 6.16667 21.8655 5.78977 21.517 5.50568C21.1686 5.22159 20.7292 5.07955 20.1989 5.07955C19.6648 5.07955 19.2216 5.22159 18.8693 5.50568C18.5208 5.78977 18.2614 6.16667 18.0909 6.63636C17.9242 7.10227 17.8409 7.61364 17.8409 8.17045C17.8409 8.73106 17.9242 9.24432 18.0909 9.71023C18.2614 10.1761 18.5208 10.5492 18.8693 10.8295C19.2216 11.1098 19.6648 11.25 20.1989 11.25ZM30.4611 3.77273V5.13636H25.5293V3.77273H30.4611ZM26.8815 12.5V2.76136C26.8815 2.21591 27.0009 1.76326 27.2395 1.40341C27.4781 1.03977 27.7944 0.768939 28.1884 0.590909C28.5823 0.40909 29.0103 0.318181 29.4724 0.318181C29.8134 0.318181 30.105 0.34659 30.3474 0.403409C30.5899 0.456439 30.7698 0.505681 30.8872 0.551136L30.4895 1.92614C30.4099 1.90341 30.3077 1.87689 30.1827 1.84659C30.0577 1.8125 29.9062 1.79545 29.7281 1.79545C29.3152 1.79545 29.0198 1.89773 28.8418 2.10227C28.6675 2.30682 28.5804 2.60227 28.5804 2.98864V12.5H26.8815ZM32.3639 12.5V3.77273H34.0628V12.5H32.3639ZM33.2219 2.42614C32.9264 2.42614 32.6726 2.32765 32.4605 2.13068C32.2522 1.92992 32.148 1.69129 32.148 1.41477C32.148 1.13447 32.2522 0.895833 32.4605 0.698863C32.6726 0.498106 32.9264 0.397727 33.2219 0.397727C33.5173 0.397727 33.7692 0.498106 33.9776 0.698863C34.1897 0.895833 34.2957 1.13447 34.2957 1.41477C34.2957 1.69129 34.1897 1.92992 33.9776 2.13068C33.7692 2.32765 33.5173 2.42614 33.2219 2.42614ZM38.1972 0.863636V12.5H36.4983V0.863636H38.1972ZM44.394 12.6761C43.5342 12.6761 42.7937 12.4924 42.1724 12.125C41.555 11.7538 41.0777 11.233 40.7406 10.5625C40.4073 9.88826 40.2406 9.09848 40.2406 8.19318C40.2406 7.29924 40.4073 6.51136 40.7406 5.82955C41.0777 5.14773 41.5474 4.61553 42.1497 4.23295C42.7558 3.85038 43.4641 3.65909 44.2747 3.65909C44.7671 3.65909 45.2444 3.74053 45.7065 3.90341C46.1687 4.06629 46.5834 4.32197 46.9509 4.67045C47.3183 5.01894 47.6081 5.47159 47.8202 6.02841C48.0323 6.58144 48.1384 7.25379 48.1384 8.04545V8.64773H41.2009V7.375H46.4736C46.4736 6.92803 46.3827 6.5322 46.2009 6.1875C46.019 5.83902 45.7634 5.56439 45.4338 5.36364C45.1081 5.16288 44.7255 5.0625 44.2861 5.0625C43.8088 5.0625 43.3921 5.17992 43.0361 5.41477C42.6838 5.64583 42.4111 5.94886 42.2179 6.32386C42.0285 6.69508 41.9338 7.09848 41.9338 7.53409V8.52841C41.9338 9.11174 42.0361 9.60795 42.2406 10.017C42.449 10.4261 42.7387 10.7386 43.1099 10.9545C43.4812 11.1667 43.9149 11.2727 44.4111 11.2727C44.7331 11.2727 45.0266 11.2273 45.2918 11.1364C45.5569 11.0417 45.7861 10.9015 45.9793 10.7159C46.1724 10.5303 46.3202 10.3011 46.4224 10.0284L48.0304 10.3182C47.9016 10.7917 47.6706 11.2064 47.3372 11.5625C47.0077 11.9148 46.5929 12.1894 46.0929 12.3864C45.5967 12.5795 45.0304 12.6761 44.394 12.6761ZM61.0406 3.92045C60.98 3.38258 60.73 2.96591 60.2906 2.67045C59.8512 2.37121 59.2982 2.22159 58.6315 2.22159C58.1543 2.22159 57.7414 2.29735 57.3929 2.44886C57.0444 2.59659 56.7736 2.80114 56.5804 3.0625C56.391 3.32008 56.2963 3.61364 56.2963 3.94318C56.2963 4.2197 56.3607 4.45833 56.4895 4.65909C56.6221 4.85985 56.7944 5.02841 57.0065 5.16477C57.2224 5.29735 57.4535 5.40909 57.6997 5.5C57.9459 5.58712 58.1827 5.65909 58.4099 5.71591L59.5463 6.01136C59.9175 6.10227 60.2982 6.22538 60.6884 6.38068C61.0785 6.53598 61.4402 6.74053 61.7736 6.99432C62.1069 7.24811 62.3759 7.5625 62.5804 7.9375C62.7887 8.3125 62.8929 8.76136 62.8929 9.28409C62.8929 9.94318 62.7224 10.5284 62.3815 11.0398C62.0444 11.5511 61.5539 11.9545 60.9099 12.25C60.2698 12.5455 59.4952 12.6932 58.5861 12.6932C57.7149 12.6932 56.9611 12.5549 56.3247 12.2784C55.6884 12.0019 55.1902 11.6098 54.8304 11.1023C54.4706 10.5909 54.2717 9.98485 54.2338 9.28409H55.9952C56.0293 9.70455 56.1656 10.0549 56.4043 10.3352C56.6467 10.6117 56.9554 10.8182 57.3304 10.9545C57.7092 11.0871 58.124 11.1534 58.5747 11.1534C59.0709 11.1534 59.5122 11.0758 59.8986 10.9205C60.2887 10.7614 60.5956 10.5417 60.819 10.2614C61.0425 9.97727 61.1543 9.64583 61.1543 9.26705C61.1543 8.92235 61.0558 8.64015 60.8588 8.42045C60.6656 8.20076 60.4024 8.01894 60.069 7.875C59.7395 7.73106 59.3664 7.60417 58.9497 7.49432L57.5747 7.11932C56.6429 6.86553 55.9043 6.49242 55.3588 6C54.8171 5.50758 54.5463 4.85606 54.5463 4.04545C54.5463 3.375 54.7281 2.78977 55.0918 2.28977C55.4554 1.78977 55.9478 1.40151 56.569 1.125C57.1902 0.844697 57.891 0.704545 58.6713 0.704545C59.4592 0.704545 60.1543 0.842803 60.7565 1.11932C61.3626 1.39583 61.8399 1.77652 62.1884 2.26136C62.5368 2.74242 62.7187 3.29545 62.7338 3.92045H61.0406ZM70.533 8.88068V3.77273H72.2375V12.5H70.567V10.9886H70.4761C70.2754 11.4545 69.9534 11.8428 69.5102 12.1534C69.0708 12.4602 68.5235 12.6136 67.8682 12.6136C67.3076 12.6136 66.8114 12.4905 66.3795 12.2443C65.9515 11.9943 65.6144 11.625 65.3682 11.1364C65.1258 10.6477 65.0045 10.0436 65.0045 9.32386V3.77273H66.7034V9.11932C66.7034 9.71402 66.8682 10.1875 67.1977 10.5398C67.5273 10.892 67.9553 11.0682 68.4818 11.0682C68.8 11.0682 69.1163 10.9886 69.4307 10.8295C69.7489 10.6705 70.0121 10.4299 70.2205 10.108C70.4326 9.78598 70.5367 9.37689 70.533 8.88068ZM74.6702 12.5V3.77273H76.3008V5.19318H76.4088C76.5906 4.71212 76.888 4.33712 77.3008 4.06818C77.7137 3.79545 78.208 3.65909 78.7838 3.65909C79.3671 3.65909 79.8558 3.79545 80.2497 4.06818C80.6474 4.34091 80.941 4.71591 81.1304 5.19318H81.2213C81.4296 4.72727 81.7611 4.35606 82.2156 4.07955C82.6702 3.79924 83.2118 3.65909 83.8406 3.65909C84.6323 3.65909 85.2781 3.9072 85.7781 4.40341C86.2819 4.89962 86.5338 5.64773 86.5338 6.64773V12.5H84.8349V6.80682C84.8349 6.21591 84.674 5.78788 84.352 5.52273C84.03 5.25758 83.6455 5.125 83.1986 5.125C82.6455 5.125 82.2156 5.29545 81.9088 5.63636C81.602 5.97348 81.4486 6.4072 81.4486 6.9375V12.5H79.7554V6.69886C79.7554 6.22538 79.6077 5.8447 79.3122 5.55682C79.0168 5.26894 78.6323 5.125 78.1588 5.125C77.8368 5.125 77.5395 5.21023 77.2668 5.38068C76.9978 5.54735 76.78 5.7803 76.6133 6.07955C76.4505 6.37879 76.369 6.72538 76.369 7.11932V12.5H74.6702ZM88.9608 12.5V3.77273H90.5915V5.19318H90.6994C90.8813 4.71212 91.1786 4.33712 91.5915 4.06818C92.0044 3.79545 92.4987 3.65909 93.0744 3.65909C93.6578 3.65909 94.1464 3.79545 94.5403 4.06818C94.9381 4.34091 95.2316 4.71591 95.421 5.19318H95.5119C95.7203 4.72727 96.0517 4.35606 96.5063 4.07955C96.9608 3.79924 97.5025 3.65909 98.1313 3.65909C98.9229 3.65909 99.5688 3.9072 100.069 4.40341C100.573 4.89962 100.824 5.64773 100.824 6.64773V12.5H99.1256V6.80682C99.1256 6.21591 98.9646 5.78788 98.6426 5.52273C98.3207 5.25758 97.9362 5.125 97.4892 5.125C96.9362 5.125 96.5063 5.29545 96.1994 5.63636C95.8926 5.97348 95.7392 6.4072 95.7392 6.9375V12.5H94.046V6.69886C94.046 6.22538 93.8983 5.8447 93.6028 5.55682C93.3074 5.26894 92.9229 5.125 92.4494 5.125C92.1275 5.125 91.8301 5.21023 91.5574 5.38068C91.2885 5.54735 91.0707 5.7803 90.904 6.07955C90.7411 6.37879 90.6597 6.72538 90.6597 7.11932V12.5H88.9608ZM105.791 12.6932C105.238 12.6932 104.738 12.5909 104.291 12.3864C103.844 12.178 103.49 11.8769 103.229 11.483C102.971 11.089 102.842 10.6061 102.842 10.0341C102.842 9.54167 102.937 9.13636 103.126 8.81818C103.316 8.5 103.571 8.24811 103.893 8.0625C104.215 7.87689 104.575 7.73674 104.973 7.64205C105.371 7.54735 105.776 7.47538 106.189 7.42614C106.712 7.36553 107.136 7.31629 107.462 7.27841C107.787 7.23674 108.024 7.17045 108.172 7.07955C108.32 6.98864 108.393 6.84091 108.393 6.63636V6.59659C108.393 6.10038 108.253 5.71591 107.973 5.44318C107.696 5.17045 107.284 5.03409 106.734 5.03409C106.162 5.03409 105.712 5.16098 105.382 5.41477C105.056 5.66477 104.831 5.94318 104.706 6.25L103.109 5.88636C103.299 5.35606 103.575 4.92803 103.939 4.60227C104.306 4.27273 104.729 4.03409 105.206 3.88636C105.683 3.73485 106.185 3.65909 106.712 3.65909C107.06 3.65909 107.429 3.70076 107.82 3.78409C108.214 3.86364 108.581 4.01136 108.922 4.22727C109.267 4.44318 109.549 4.75189 109.768 5.15341C109.988 5.55114 110.098 6.06818 110.098 6.70455V12.5H108.439V11.3068H108.371C108.261 11.5265 108.096 11.7424 107.876 11.9545C107.657 12.1667 107.375 12.3428 107.03 12.483C106.685 12.6231 106.272 12.6932 105.791 12.6932ZM106.161 11.3295C106.63 11.3295 107.032 11.2367 107.365 11.0511C107.702 10.8655 107.958 10.6231 108.132 10.3239C108.31 10.0208 108.399 9.69697 108.399 9.35227V8.22727C108.339 8.28788 108.221 8.3447 108.047 8.39773C107.876 8.44697 107.681 8.49053 107.462 8.52841C107.242 8.5625 107.028 8.5947 106.82 8.625C106.611 8.65152 106.437 8.67424 106.297 8.69318C105.967 8.73485 105.666 8.80492 105.393 8.90341C105.125 9.00189 104.909 9.14394 104.746 9.32955C104.587 9.51136 104.507 9.75379 104.507 10.0568C104.507 10.4773 104.662 10.7955 104.973 11.0114C105.284 11.2235 105.679 11.3295 106.161 11.3295ZM112.511 12.5V3.77273H114.153V5.15909H114.244C114.403 4.68939 114.683 4.32008 115.085 4.05114C115.49 3.77841 115.948 3.64205 116.46 3.64205C116.566 3.64205 116.691 3.64583 116.835 3.65341C116.982 3.66098 117.098 3.67045 117.181 3.68182V5.30682C117.113 5.28788 116.992 5.26705 116.818 5.24432C116.643 5.2178 116.469 5.20455 116.295 5.20455C115.893 5.20455 115.535 5.28977 115.221 5.46023C114.91 5.62689 114.664 5.85985 114.482 6.15909C114.301 6.45455 114.21 6.79167 114.21 7.17045V12.5H112.511ZM120.141 15.7727C119.887 15.7727 119.656 15.7519 119.448 15.7102C119.239 15.6723 119.084 15.6307 118.982 15.5852L119.391 14.1932C119.702 14.2765 119.978 14.3125 120.22 14.3011C120.463 14.2898 120.677 14.1989 120.863 14.0284C121.052 13.858 121.219 13.5795 121.363 13.1932L121.573 12.6136L118.38 3.77273H120.198L122.408 10.5455H122.499L124.709 3.77273H126.533L122.936 13.6648C122.77 14.1193 122.558 14.5038 122.3 14.8182C122.042 15.1364 121.736 15.375 121.38 15.5341C121.023 15.6932 120.611 15.7727 120.141 15.7727Z" fill="black"/>
</svg>
